solid STL generated by MeshLab
  facet normal -2.025361e-04 -6.506579e-01 -7.593709e-01
    outer loop
      vertex  -2.700000e+01 -3.999103e+01  1.627384e+01
      vertex  -2.100000e+01 -2.100000e+01  0.000000e+00
      vertex   2.700000e+01 -3.998217e+01  1.625184e+01
    endloop
  endfacet
  facet normal -0.000000e+00 -6.503624e-01 -7.596241e-01
    outer loop
      vertex   2.100000e+01 -2.100000e+01  0.000000e+00
      vertex   2.700000e+01 -3.998217e+01  1.625184e+01
      vertex  -2.100000e+01 -2.100000e+01  0.000000e+00
    endloop
  endfacet
  facet normal  0.000000e+00  0.000000e+00 -1.000000e+00
    outer loop
      vertex   2.100000e+01 -2.100000e+01  0.000000e+00
      vertex  -2.100000e+01 -2.100000e+01  0.000000e+00
      vertex  -2.100000e+01  2.100000e+01  0.000000e+00
    endloop
  endfacet
  facet normal  0.000000e+00  0.000000e+00 -1.000000e+00
    outer loop
      vertex   2.100000e+01 -2.100000e+01  0.000000e+00
      vertex  -2.100000e+01  2.100000e+01  0.000000e+00
      vertex   2.100000e+01  2.100000e+01  0.000000e+00
    endloop
  endfacet
  facet normal  8.274100e-01  0.000000e+00 -5.615984e-01
    outer loop
      vertex   2.100000e+01 -2.100000e+01  0.000000e+00
      vertex   2.100000e+01  2.100000e+01  0.000000e+00
      vertex   2.699875e+01  1.293916e-01  8.838034e+00
    endloop
  endfacet
  facet normal  0.000000e+00  6.504202e-01 -7.595747e-01
    outer loop
      vertex   2.700002e+01  3.998226e+01  1.625442e+01
      vertex   2.100000e+01  2.100000e+01  0.000000e+00
      vertex  -2.100000e+01  2.100000e+01  0.000000e+00
    endloop
  endfacet
  facet normal -1.969738e-04  6.507074e-01 -7.593285e-01
    outer loop
      vertex   2.700002e+01  3.998226e+01  1.625442e+01
      vertex  -2.100000e+01  2.100000e+01  0.000000e+00
      vertex  -2.700002e+01  3.999107e+01  1.627598e+01
    endloop
  endfacet
  facet normal -8.274100e-01  0.000000e+00 -5.615984e-01
    outer loop
      vertex  -2.699875e+01  1.293898e-01  8.838034e+00
      vertex  -2.100000e+01  2.100000e+01  0.000000e+00
      vertex  -2.100000e+01 -2.100000e+01  0.000000e+00
    endloop
  endfacet
  facet normal -9.017618e-01  7.925594e-02 -4.249048e-01
    outer loop
      vertex  -2.699875e+01  1.293898e-01  8.838034e+00
      vertex  -2.700002e+01  3.999107e+01  1.627598e+01
      vertex  -2.100000e+01  2.100000e+01  0.000000e+00
    endloop
  endfacet
  facet normal -9.020869e-01 -7.861655e-02 -4.243334e-01
    outer loop
      vertex  -2.699875e+01  1.293898e-01  8.838034e+00
      vertex  -2.100000e+01 -2.100000e+01  0.000000e+00
      vertex  -2.700000e+01 -3.999103e+01  1.627384e+01
    endloop
  endfacet
  facet normal  7.097961e-02 -6.702638e-01  7.387207e-01
    outer loop
      vertex   2.700000e+01 -3.212263e+01  5.711804e+01
      vertex  -2.700000e+01 -3.980593e+01  5.533532e+01
      vertex   2.700000e+01 -3.999458e+01  4.997559e+01
    endloop
  endfacet
  facet normal -3.023093e-03 -9.999843e-01  4.738721e-03
    outer loop
      vertex   2.700000e+01 -3.999458e+01  4.997559e+01
      vertex  -2.700000e+01 -3.980593e+01  5.533532e+01
      vertex  -2.700000e+01 -3.999103e+01  1.627384e+01
    endloop
  endfacet
  facet normal  1.639528e-04 -9.999999e-01 -3.678534e-04
    outer loop
      vertex   2.700000e+01 -3.999458e+01  4.997559e+01
      vertex  -2.700000e+01 -3.999103e+01  1.627384e+01
      vertex   2.700000e+01 -3.998217e+01  1.625184e+01
    endloop
  endfacet
  facet normal  1.633381e-04  9.999999e-01  2.087005e-04
    outer loop
      vertex  -2.700002e+01  3.999107e+01  1.627598e+01
      vertex   2.700000e+01  3.997483e+01  5.184233e+01
      vertex   2.700002e+01  3.998226e+01  1.625442e+01
    endloop
  endfacet
  facet normal -1.710661e-03  9.999939e-01  3.053970e-03
    outer loop
      vertex  -2.700002e+01  3.999107e+01  1.627598e+01
      vertex  -2.700000e+01  3.987609e+01  5.392722e+01
      vertex   2.700000e+01  3.997483e+01  5.184233e+01
    endloop
  endfacet
  facet normal  9.016389e-01  7.909765e-02 -4.251951e-01
    outer loop
      vertex   2.699875e+01  1.293916e-01  8.838034e+00
      vertex   2.100000e+01  2.100000e+01  0.000000e+00
      vertex   2.700002e+01  3.998226e+01  1.625442e+01
    endloop
  endfacet
  facet normal  9.019607e-01 -7.845624e-02 -4.246310e-01
    outer loop
      vertex   2.699875e+01  1.293916e-01  8.838034e+00
      vertex   2.700000e+01 -3.998217e+01  1.625184e+01
      vertex   2.100000e+01 -2.100000e+01  0.000000e+00
    endloop
  endfacet
  facet normal  1.481051e-02 -4.099423e-02  9.990495e-01
    outer loop
      vertex   2.700000e+01 -3.212263e+01  5.711804e+01
      vertex   2.699999e+01  1.578164e+01  5.908371e+01
      vertex  -2.700000e+01 -2.479369e+00  5.913493e+01
    endloop
  endfacet
  facet normal -1.843145e-02 -1.012532e-01  9.946899e-01
    outer loop
      vertex   2.700000e+01 -3.212263e+01  5.711804e+01
      vertex  -2.700000e+01 -2.479369e+00  5.913493e+01
      vertex  -2.700000e+01 -3.980593e+01  5.533532e+01
    endloop
  endfacet
  facet normal  3.643904e-02  2.865550e-01  9.573706e-01
    outer loop
      vertex   2.699999e+01  1.578164e+01  5.908371e+01
      vertex   2.700000e+01  3.997483e+01  5.184233e+01
      vertex  -2.700000e+01  3.987609e+01  5.392722e+01
    endloop
  endfacet
  facet normal -4.029357e-02  1.219345e-01  9.917198e-01
    outer loop
      vertex  -2.700000e+01 -2.479369e+00  5.913493e+01
      vertex   2.699999e+01  1.578164e+01  5.908371e+01
      vertex  -2.700000e+01  3.987609e+01  5.392722e+01
    endloop
  endfacet
  facet normal -1.000000e+00  5.607822e-08  4.560963e-07
    outer loop
      vertex  -2.700000e+01 -2.479369e+00  5.913493e+01
      vertex  -2.700000e+01  3.987609e+01  5.392722e+01
      vertex  -2.700002e+01  3.999107e+01  1.627598e+01
    endloop
  endfacet
  facet normal -1.000000e+00 -2.691735e-05 -2.627282e-05
    outer loop
      vertex  -2.700000e+01 -2.479369e+00  5.913493e+01
      vertex  -2.700002e+01  3.999107e+01  1.627598e+01
      vertex  -2.699875e+01  1.293898e-01  8.838034e+00
    endloop
  endfacet
  facet normal -1.000000e+00  2.688201e-05 -2.348240e-05
    outer loop
      vertex  -2.700000e+01 -2.479369e+00  5.913493e+01
      vertex  -2.699875e+01  1.293898e-01  8.838034e+00
      vertex  -2.700000e+01 -3.999103e+01  1.627384e+01
    endloop
  endfacet
  facet normal -1.000000e+00 -4.972927e-09  4.885296e-08
    outer loop
      vertex  -2.700000e+01 -2.479369e+00  5.913493e+01
      vertex  -2.700000e+01 -3.999103e+01  1.627384e+01
      vertex  -2.700000e+01 -3.980593e+01  5.533532e+01
    endloop
  endfacet
  facet normal  1.000000e+00 -4.235592e-07  4.286748e-07
    outer loop
      vertex   2.699999e+01  1.578164e+01  5.908371e+01
      vertex   2.700002e+01  3.998226e+01  1.625442e+01
      vertex   2.700000e+01  3.997483e+01  5.184233e+01
    endloop
  endfacet
  facet normal  1.000000e+00 -2.886769e-05 -1.564363e-05
    outer loop
      vertex   2.699999e+01  1.578164e+01  5.908371e+01
      vertex   2.699875e+01  1.293916e-01  8.838034e+00
      vertex   2.700002e+01  3.998226e+01  1.625442e+01
    endloop
  endfacet
  facet normal  1.000000e+00  2.523461e-05 -3.249728e-05
    outer loop
      vertex   2.699999e+01  1.578164e+01  5.908371e+01
      vertex   2.700000e+01 -3.998217e+01  1.625184e+01
      vertex   2.699875e+01  1.293916e-01  8.838034e+00
    endloop
  endfacet
  facet normal  1.000000e+00  2.301255e-07  5.664269e-08
    outer loop
      vertex   2.699999e+01  1.578164e+01  5.908371e+01
      vertex   2.700000e+01 -3.999458e+01  4.997559e+01
      vertex   2.700000e+01 -3.998217e+01  1.625184e+01
    endloop
  endfacet
  facet normal  1.000000e+00  2.919123e-07 -3.217265e-07
    outer loop
      vertex   2.699999e+01  1.578164e+01  5.908371e+01
      vertex   2.700000e+01 -3.212263e+01  5.711804e+01
      vertex   2.700000e+01 -3.999458e+01  4.997559e+01
    endloop
  endfacet
endsolid vcg
