solid STL generated by MeshLab
  facet normal  1.413949e-02  3.347912e-01 -9.421862e-01
    outer loop
      vertex  -1.300000e+01 -3.338222e+01 -2.898213e+01
      vertex   1.300000e+01 -3.230666e+01 -2.820976e+01
      vertex   1.300000e+01 -3.441065e+01 -2.895738e+01
    endloop
  endfacet
  facet normal -9.957605e-03 -2.748760e-01 -9.614282e-01
    outer loop
      vertex  -1.300000e+01 -3.338222e+01 -2.898213e+01
      vertex   1.300000e+01 -3.441065e+01 -2.895738e+01
      vertex   1.300000e+01 -3.743337e+01 -2.809318e+01
    endloop
  endfacet
  facet normal -4.826811e-03 -2.437876e-01 -9.698166e-01
    outer loop
      vertex  -1.300000e+01 -3.338222e+01 -2.898213e+01
      vertex   1.300000e+01 -3.743337e+01 -2.809318e+01
      vertex  -1.300000e+01 -3.752576e+01 -2.794055e+01
    endloop
  endfacet
  facet normal  4.093747e-05 -8.585446e-01 -5.127388e-01
    outer loop
      vertex  -1.300000e+01 -3.752576e+01 -2.794055e+01
      vertex   1.300000e+01 -3.743337e+01 -2.809318e+01
      vertex   1.300000e+01 -6.513381e+01  1.828925e+01
    endloop
  endfacet
  facet normal -1.266447e-04 -8.585861e-01 -5.126693e-01
    outer loop
      vertex  -1.300000e+01 -3.752576e+01 -2.794055e+01
      vertex   1.300000e+01 -6.513381e+01  1.828925e+01
      vertex  -1.300000e+01 -6.512224e+01  1.827629e+01
    endloop
  endfacet
  facet normal  0.000000e+00  5.846137e-01 -8.113119e-01
    outer loop
      vertex  -1.300000e+01  2.338454e+00 -3.245247e+00
      vertex   1.300000e+01  2.338454e+00 -3.245247e+00
      vertex   1.300000e+01 -3.230666e+01 -2.820976e+01
    endloop
  endfacet
  facet normal -8.040656e-05  5.845739e-01 -8.113405e-01
    outer loop
      vertex  -1.300000e+01  2.338454e+00 -3.245247e+00
      vertex   1.300000e+01 -3.230666e+01 -2.820976e+01
      vertex  -1.300000e+01 -3.338222e+01 -2.898213e+01
    endloop
  endfacet
  facet normal  1.543473e-05  5.000092e-01  8.660201e-01
    outer loop
      vertex  -1.300000e+01 -4.889833e+01  3.284946e+01
      vertex   1.300000e+01 -4.871263e+01  3.274179e+01
      vertex   1.298059e+01  3.704710e+00  2.477874e+00
    endloop
  endfacet
  facet normal -5.008704e-05  5.000335e-01  8.660060e-01
    outer loop
      vertex  -1.300000e+01 -4.889833e+01  3.284946e+01
      vertex   1.298059e+01  3.704710e+00  2.477874e+00
      vertex  -1.300000e+01  5.124627e+00  1.656511e+00
    endloop
  endfacet
  facet normal -6.683603e-04 -6.682463e-01  7.439398e-01
    outer loop
      vertex  -1.300000e+01 -4.889833e+01  3.284946e+01
      vertex  -1.300000e+01 -6.512224e+01  1.827629e+01
      vertex   1.300000e+01 -6.513381e+01  1.828925e+01
    endloop
  endfacet
  facet normal  7.827264e-03 -6.606566e-01  7.506474e-01
    outer loop
      vertex  -1.300000e+01 -4.889833e+01  3.284946e+01
      vertex   1.300000e+01 -6.513381e+01  1.828925e+01
      vertex   1.300000e+01 -4.871263e+01  3.274179e+01
    endloop
  endfacet
  facet normal  1.000000e+00  0.000000e+00  0.000000e+00
    outer loop
      vertex   1.300000e+01  3.605269e+00 -1.732637e+00
      vertex   1.300000e+01 -3.230666e+01 -2.820976e+01
      vertex   1.300000e+01  2.338454e+00 -3.245247e+00
    endloop
  endfacet
  facet normal  1.000000e+00  0.000000e+00  0.000000e+00
    outer loop
      vertex   1.300000e+01  3.605269e+00 -1.732637e+00
      vertex   1.300000e+01 -3.441065e+01 -2.895738e+01
      vertex   1.300000e+01 -3.230666e+01 -2.820976e+01
    endloop
  endfacet
  facet normal  1.000000e+00  0.000000e+00  0.000000e+00
    outer loop
      vertex   1.300000e+01  3.605269e+00 -1.732637e+00
      vertex   1.300000e+01 -3.743337e+01 -2.809318e+01
      vertex   1.300000e+01 -3.441065e+01 -2.895738e+01
    endloop
  endfacet
  facet normal  9.999852e-01  2.991516e-03  4.539883e-03
    outer loop
      vertex   1.300000e+01  3.605269e+00 -1.732637e+00
      vertex   1.298059e+01  3.704710e+00  2.477874e+00
      vertex   1.300000e+01 -4.871263e+01  3.274179e+01
    endloop
  endfacet
  facet normal  1.000000e+00  0.000000e+00  0.000000e+00
    outer loop
      vertex   1.300000e+01  3.605269e+00 -1.732637e+00
      vertex   1.300000e+01 -6.513381e+01  1.828925e+01
      vertex   1.300000e+01 -3.743337e+01 -2.809318e+01
    endloop
  endfacet
  facet normal  1.000000e+00  0.000000e+00  0.000000e+00
    outer loop
      vertex   1.300000e+01  3.605269e+00 -1.732637e+00
      vertex   1.300000e+01 -4.871263e+01  3.274179e+01
      vertex   1.300000e+01 -6.513381e+01  1.828925e+01
    endloop
  endfacet
  facet normal -3.886504e-02  7.660677e-01 -6.415837e-01
    outer loop
      vertex  -1.300000e+01  5.124627e+00  1.656511e+00
      vertex   1.300000e+01  3.605269e+00 -1.732637e+00
      vertex   1.300000e+01  2.338454e+00 -3.245247e+00
    endloop
  endfacet
  facet normal  0.000000e+00  8.693741e-01 -4.941546e-01
    outer loop
      vertex  -1.300000e+01  5.124627e+00  1.656511e+00
      vertex   1.300000e+01  2.338454e+00 -3.245247e+00
      vertex  -1.300000e+01  2.338454e+00 -3.245247e+00
    endloop
  endfacet
  facet normal  5.529173e-02  9.981979e-01 -2.331985e-02
    outer loop
      vertex  -1.300000e+01  5.124627e+00  1.656511e+00
      vertex   1.298059e+01  3.704710e+00  2.477874e+00
      vertex   1.300000e+01  3.605269e+00 -1.732637e+00
    endloop
  endfacet
  facet normal -1.000000e+00  0.000000e+00  0.000000e+00
    outer loop
      vertex  -1.300000e+01  5.124627e+00  1.656511e+00
      vertex  -1.300000e+01  2.338454e+00 -3.245247e+00
      vertex  -1.300000e+01 -3.338222e+01 -2.898213e+01
    endloop
  endfacet
  facet normal -1.000000e+00  0.000000e+00  0.000000e+00
    outer loop
      vertex  -1.300000e+01  5.124627e+00  1.656511e+00
      vertex  -1.300000e+01 -3.338222e+01 -2.898213e+01
      vertex  -1.300000e+01 -3.752576e+01 -2.794055e+01
    endloop
  endfacet
  facet normal -1.000000e+00 -0.000000e+00  0.000000e+00
    outer loop
      vertex  -1.300000e+01  5.124627e+00  1.656511e+00
      vertex  -1.300000e+01 -3.752576e+01 -2.794055e+01
      vertex  -1.300000e+01 -6.512224e+01  1.827629e+01
    endloop
  endfacet
  facet normal -1.000000e+00  0.000000e+00  0.000000e+00
    outer loop
      vertex  -1.300000e+01  5.124627e+00  1.656511e+00
      vertex  -1.300000e+01 -6.512224e+01  1.827629e+01
      vertex  -1.300000e+01 -4.889833e+01  3.284946e+01
    endloop
  endfacet
endsolid vcg
