solid STL generated by MeshLab
  facet normal -0.000000e+00  8.308180e-06  1.000000e+00
    outer loop
      vertex  -1.300000e+01 -1.800000e+01  3.999999e+00
      vertex   1.300000e+01 -1.800000e+01  3.999999e+00
      vertex   1.300067e+01 -2.159339e+00  3.999868e+00
    endloop
  endfacet
  facet normal  4.150368e-06  1.495816e-06  1.000000e+00
    outer loop
      vertex  -1.300000e+01 -1.800000e+01  3.999999e+00
      vertex   1.300067e+01 -2.159339e+00  3.999868e+00
      vertex  -1.300003e+01 -2.220287e+00  3.999976e+00
    endloop
  endfacet
  facet normal  1.000000e+00 -1.352963e-04 -4.850138e-05
    outer loop
      vertex   1.299971e+01 -1.798115e+01 -2.030095e+00
      vertex   1.300000e+01 -1.133917e+01 -1.456096e+01
      vertex   1.300000e+01 -1.800000e+01  3.999999e+00
    endloop
  endfacet
  facet normal -9.702293e-01 -2.227182e-01  9.514087e-02
    outer loop
      vertex  -1.342807e+01 -7.836527e+00 -1.351231e+01
      vertex  -1.297406e+01 -1.040284e+01 -1.489005e+01
      vertex  -1.300003e+01 -2.220287e+00  3.999976e+00
    endloop
  endfacet
  facet normal  3.856039e-04 -9.999951e-01 -3.126677e-03
    outer loop
      vertex  -1.299976e+01 -1.799123e+01 -2.012572e+00
      vertex   1.299971e+01 -1.798115e+01 -2.030095e+00
      vertex   1.300000e+01 -1.800000e+01  3.999999e+00
    endloop
  endfacet
  facet normal  0.000000e+00 -9.999989e-01 -1.459242e-03
    outer loop
      vertex  -1.299976e+01 -1.799123e+01 -2.012572e+00
      vertex   1.300000e+01 -1.800000e+01  3.999999e+00
      vertex  -1.300000e+01 -1.800000e+01  3.999999e+00
    endloop
  endfacet
  facet normal  7.172966e-01  6.684896e-01 -1.964873e-01
    outer loop
      vertex   5.868315e+00  3.976480e+00 -1.162213e+00
      vertex   1.300067e+01 -2.159339e+00  3.999868e+00
      vertex   1.304447e+01 -7.144869e+00 -1.280201e+01
    endloop
  endfacet
  facet normal  9.999900e-01 -3.963292e-03 -2.077528e-03
    outer loop
      vertex   1.299260e+01 -1.388751e+01 -1.326117e+01
      vertex   1.300000e+01 -1.133917e+01 -1.456096e+01
      vertex   1.299971e+01 -1.798115e+01 -2.030095e+00
    endloop
  endfacet
  facet normal  1.334678e-04 -9.395351e-01 -3.424527e-01
    outer loop
      vertex   1.299260e+01 -1.388751e+01 -1.326117e+01
      vertex   1.299971e+01 -1.798115e+01 -2.030095e+00
      vertex  -1.299976e+01 -1.799123e+01 -2.012572e+00
    endloop
  endfacet
  facet normal  4.973179e-05 -9.394729e-01 -3.426235e-01
    outer loop
      vertex   1.299260e+01 -1.388751e+01 -1.326117e+01
      vertex  -1.299976e+01 -1.799123e+01 -2.012572e+00
      vertex  -1.300005e+01 -1.399774e+01 -1.296269e+01
    endloop
  endfacet
  facet normal  4.752049e-04  7.075338e-01 -7.066794e-01
    outer loop
      vertex  -5.647305e+00  4.073109e+00 -1.583043e+00
      vertex   1.304447e+01 -7.144869e+00 -1.280201e+01
      vertex  -1.342807e+01 -7.836527e+00 -1.351231e+01
    endloop
  endfacet
  facet normal -7.193264e-01  6.664081e-01 -1.961371e-01
    outer loop
      vertex  -5.647305e+00  4.073109e+00 -1.583043e+00
      vertex  -1.342807e+01 -7.836527e+00 -1.351231e+01
      vertex  -1.300003e+01 -2.220287e+00  3.999976e+00
    endloop
  endfacet
  facet normal  1.784885e-02 -3.186120e-02  9.993329e-01
    outer loop
      vertex   6.752017e+00  2.172759e+00  3.787250e+00
      vertex  -6.039539e+00  1.139692e+00  3.982780e+00
      vertex  -1.300003e+01 -2.220287e+00  3.999976e+00
    endloop
  endfacet
  facet normal -1.103881e-04  4.886170e-02  9.988056e-01
    outer loop
      vertex   6.752017e+00  2.172759e+00  3.787250e+00
      vertex  -1.300003e+01 -2.220287e+00  3.999976e+00
      vertex   1.300067e+01 -2.159339e+00  3.999868e+00
    endloop
  endfacet
  facet normal -2.949839e-01  6.148278e-01  7.314173e-01
    outer loop
      vertex  -6.000640e+00  3.589660e+00  1.939030e+00
      vertex  -1.300003e+01 -2.220287e+00  3.999976e+00
      vertex  -6.039539e+00  1.139692e+00  3.982780e+00
    endloop
  endfacet
  facet normal -6.305589e-01  7.749431e-01  4.311280e-02
    outer loop
      vertex  -5.647305e+00  4.073109e+00 -1.583043e+00
      vertex  -1.300003e+01 -2.220287e+00  3.999976e+00
      vertex  -6.000640e+00  3.589660e+00  1.939030e+00
    endloop
  endfacet
  facet normal  3.100945e-02  7.321579e-01 -6.804287e-01
    outer loop
      vertex   1.304447e+01 -7.144869e+00 -1.280201e+01
      vertex  -5.647305e+00  4.073109e+00 -1.583043e+00
      vertex   5.868315e+00  3.976480e+00 -1.162213e+00
    endloop
  endfacet
  facet normal  3.331283e-03  9.906599e-01  1.363148e-01
    outer loop
      vertex   5.868315e+00  3.976480e+00 -1.162213e+00
      vertex  -5.647305e+00  4.073109e+00 -1.583043e+00
      vertex  -6.000640e+00  3.589660e+00  1.939030e+00
    endloop
  endfacet
  facet normal -3.999892e-02  6.404364e-01  7.669689e-01
    outer loop
      vertex   6.752017e+00  2.172759e+00  3.787250e+00
      vertex  -6.000640e+00  3.589660e+00  1.939030e+00
      vertex  -6.039539e+00  1.139692e+00  3.982780e+00
    endloop
  endfacet
  facet normal -5.092163e-03 -4.543457e-01 -8.908109e-01
    outer loop
      vertex  -1.297406e+01 -1.040284e+01 -1.489005e+01
      vertex   1.300000e+01 -1.133917e+01 -1.456096e+01
      vertex   1.299260e+01 -1.388751e+01 -1.326117e+01
    endloop
  endfacet
  facet normal  5.632373e-02  9.412561e-01  3.329632e-01
    outer loop
      vertex   6.752017e+00  2.172759e+00  3.787250e+00
      vertex   5.868315e+00  3.976480e+00 -1.162213e+00
      vertex  -6.000640e+00  3.589660e+00  1.939030e+00
    endloop
  endfacet
  facet normal  5.542063e-01  8.090050e-01  1.958729e-01
    outer loop
      vertex   6.752017e+00  2.172759e+00  3.787250e+00
      vertex   1.300067e+01 -2.159339e+00  3.999868e+00
      vertex   5.868315e+00  3.976480e+00 -1.162213e+00
    endloop
  endfacet
  facet normal -8.116745e-03 -4.724480e-01 -8.813212e-01
    outer loop
      vertex  -1.300005e+01 -1.399774e+01 -1.296269e+01
      vertex  -1.297406e+01 -1.040284e+01 -1.489005e+01
      vertex   1.299260e+01 -1.388751e+01 -1.326117e+01
    endloop
  endfacet
  facet normal -9.999794e-01  5.267187e-03 -3.655969e-03
    outer loop
      vertex  -1.300005e+01 -1.399774e+01 -1.296269e+01
      vertex  -1.300003e+01 -2.220287e+00  3.999976e+00
      vertex  -1.297406e+01 -1.040284e+01 -1.489005e+01
    endloop
  endfacet
  facet normal -1.000000e+00 -1.631789e-06  2.257416e-06
    outer loop
      vertex  -1.300005e+01 -1.399774e+01 -1.296269e+01
      vertex  -1.300000e+01 -1.800000e+01  3.999999e+00
      vertex  -1.300003e+01 -2.220287e+00  3.999976e+00
    endloop
  endfacet
  facet normal -1.000000e+00 -1.790241e-04 -3.959736e-05
    outer loop
      vertex  -1.300005e+01 -1.399774e+01 -1.296269e+01
      vertex  -1.299976e+01 -1.799123e+01 -2.012572e+00
      vertex  -1.300000e+01 -1.800000e+01  3.999999e+00
    endloop
  endfacet
  facet normal  1.121871e-02  4.745114e-01 -8.801778e-01
    outer loop
      vertex  -1.342807e+01 -7.836527e+00 -1.351231e+01
      vertex   1.304447e+01 -7.144869e+00 -1.280201e+01
      vertex  -1.297406e+01 -1.040284e+01 -1.489005e+01
    endloop
  endfacet
  facet normal  1.000000e+00 -4.238389e-05 -1.515860e-05
    outer loop
      vertex   1.300000e+01 -1.133917e+01 -1.456096e+01
      vertex   1.300067e+01 -2.159339e+00  3.999868e+00
      vertex   1.300000e+01 -1.800000e+01  3.999999e+00
    endloop
  endfacet
  facet normal  9.998892e-01 -1.335724e-02  6.570116e-03
    outer loop
      vertex   1.300000e+01 -1.133917e+01 -1.456096e+01
      vertex   1.304447e+01 -7.144869e+00 -1.280201e+01
      vertex   1.300067e+01 -2.159339e+00  3.999868e+00
    endloop
  endfacet
  facet normal  2.560971e-02  3.863775e-01 -9.219851e-01
    outer loop
      vertex   1.300000e+01 -1.133917e+01 -1.456096e+01
      vertex  -1.297406e+01 -1.040284e+01 -1.489005e+01
      vertex   1.304447e+01 -7.144869e+00 -1.280201e+01
    endloop
  endfacet
endsolid vcg
