solid STL generated by MeshLab
  facet normal  1.049573e-03  7.114375e-01  7.027486e-01
    outer loop
      vertex   1.300000e+01  5.001484e+01  3.349323e+01
      vertex   1.300000e+01  6.509458e+01  1.822704e+01
      vertex  -1.300000e+01  6.511134e+01  1.824891e+01
    endloop
  endfacet
  facet normal  4.365804e-05  7.105806e-01  7.036157e-01
    outer loop
      vertex   1.300000e+01  5.001484e+01  3.349323e+01
      vertex  -1.300000e+01  6.511134e+01  1.824891e+01
      vertex  -1.297979e+01  5.088716e+01  3.261389e+01
    endloop
  endfacet
  facet normal  0.000000e+00 -3.348247e-01 -9.422804e-01
    outer loop
      vertex   1.300000e+01  3.441065e+01 -2.895738e+01
      vertex   1.300000e+01  3.230666e+01 -2.820976e+01
      vertex  -1.300000e+01  3.230666e+01 -2.820976e+01
    endloop
  endfacet
  facet normal -2.028225e-02 -1.027430e-01 -9.945011e-01
    outer loop
      vertex   1.300000e+01  3.441065e+01 -2.895738e+01
      vertex  -1.300000e+01  3.230666e+01 -2.820976e+01
      vertex  -1.300000e+01  3.706666e+01 -2.870152e+01
    endloop
  endfacet
  facet normal  2.233857e-02  3.102295e-01 -9.503992e-01
    outer loop
      vertex   1.300000e+01  3.441065e+01 -2.895738e+01
      vertex  -1.300000e+01  3.706666e+01 -2.870152e+01
      vertex   1.300000e+01  3.752576e+01 -2.794055e+01
    endloop
  endfacet
  facet normal  0.000000e+00 -5.846255e-01 -8.113033e-01
    outer loop
      vertex   1.300000e+01 -3.278825e+00 -2.566845e+00
      vertex  -1.300000e+01  3.230666e+01 -2.820976e+01
      vertex   1.300000e+01  3.230666e+01 -2.820976e+01
    endloop
  endfacet
  facet normal -1.783385e-05 -5.846341e-01 -8.112971e-01
    outer loop
      vertex   1.300000e+01 -3.278825e+00 -2.566845e+00
      vertex  -1.300000e+01 -3.146417e+00 -2.661688e+00
      vertex  -1.300000e+01  3.230666e+01 -2.820976e+01
    endloop
  endfacet
  facet normal -1.000000e+00  0.000000e+00  0.000000e+00
    outer loop
      vertex  -1.300000e+01  4.736345e+01  3.196410e+01
      vertex  -1.300000e+01 -3.146417e+00 -2.661688e+00
      vertex  -1.300000e+01 -3.763376e+00  2.444633e+00
    endloop
  endfacet
  facet normal -9.999713e-01  4.630848e-03  5.992463e-03
    outer loop
      vertex  -1.300000e+01  4.736345e+01  3.196410e+01
      vertex  -1.297979e+01  5.088716e+01  3.261389e+01
      vertex  -1.300000e+01  6.511134e+01  1.824891e+01
    endloop
  endfacet
  facet normal -1.000000e+00  0.000000e+00 -0.000000e+00
    outer loop
      vertex  -1.300000e+01  4.736345e+01  3.196410e+01
      vertex  -1.300000e+01  6.511134e+01  1.824891e+01
      vertex  -1.300000e+01  3.706666e+01 -2.870152e+01
    endloop
  endfacet
  facet normal -1.000000e+00  0.000000e+00  0.000000e+00
    outer loop
      vertex  -1.300000e+01  4.736345e+01  3.196410e+01
      vertex  -1.300000e+01  3.706666e+01 -2.870152e+01
      vertex  -1.300000e+01  3.230666e+01 -2.820976e+01
    endloop
  endfacet
  facet normal -1.000000e+00  0.000000e+00  0.000000e+00
    outer loop
      vertex  -1.300000e+01  4.736345e+01  3.196410e+01
      vertex  -1.300000e+01  3.230666e+01 -2.820976e+01
      vertex  -1.300000e+01 -3.146417e+00 -2.661688e+00
    endloop
  endfacet
  facet normal -1.503432e-04  8.585044e-01 -5.128062e-01
    outer loop
      vertex   1.300000e+01  3.752576e+01 -2.794055e+01
      vertex  -1.300000e+01  3.706666e+01 -2.870152e+01
      vertex  -1.300000e+01  6.511134e+01  1.824891e+01
    endloop
  endfacet
  facet normal  1.221501e-04  8.585718e-01 -5.126933e-01
    outer loop
      vertex   1.300000e+01  3.752576e+01 -2.794055e+01
      vertex  -1.300000e+01  6.511134e+01  1.824891e+01
      vertex   1.300000e+01  6.509458e+01  1.822704e+01
    endloop
  endfacet
  facet normal  8.800330e-03 -9.986649e-01 -5.090225e-02
    outer loop
      vertex   1.300000e+01 -3.278825e+00 -2.566845e+00
      vertex   1.300000e+01 -3.540772e+00  2.572372e+00
      vertex  -1.300000e+01 -3.763376e+00  2.444633e+00
    endloop
  endfacet
  facet normal -4.618227e-03 -9.927694e-01 -1.199489e-01
    outer loop
      vertex   1.300000e+01 -3.278825e+00 -2.566845e+00
      vertex  -1.300000e+01 -3.763376e+00  2.444633e+00
      vertex  -1.300000e+01 -3.146417e+00 -2.661688e+00
    endloop
  endfacet
  facet normal  5.754260e-05 -5.000176e-01  8.660153e-01
    outer loop
      vertex   1.300000e+01  5.001484e+01  3.349323e+01
      vertex  -1.300000e+01  4.736345e+01  3.196410e+01
      vertex  -1.300000e+01 -3.763376e+00  2.444633e+00
    endloop
  endfacet
  facet normal  2.604082e-05 -5.000062e-01  8.660219e-01
    outer loop
      vertex   1.300000e+01  5.001484e+01  3.349323e+01
      vertex  -1.300000e+01 -3.763376e+00  2.444633e+00
      vertex   1.300000e+01 -3.540772e+00  2.572372e+00
    endloop
  endfacet
  facet normal -3.933850e-02 -1.809877e-01  9.826983e-01
    outer loop
      vertex   1.300000e+01  5.001484e+01  3.349323e+01
      vertex  -1.297979e+01  5.088716e+01  3.261389e+01
      vertex  -1.300000e+01  4.736345e+01  3.196410e+01
    endloop
  endfacet
  facet normal  1.000000e+00  0.000000e+00  0.000000e+00
    outer loop
      vertex   1.300000e+01  5.001484e+01  3.349323e+01
      vertex   1.300000e+01 -3.540772e+00  2.572372e+00
      vertex   1.300000e+01 -3.278825e+00 -2.566845e+00
    endloop
  endfacet
  facet normal  1.000000e+00  0.000000e+00  0.000000e+00
    outer loop
      vertex   1.300000e+01  5.001484e+01  3.349323e+01
      vertex   1.300000e+01  3.752576e+01 -2.794055e+01
      vertex   1.300000e+01  6.509458e+01  1.822704e+01
    endloop
  endfacet
  facet normal  1.000000e+00  0.000000e+00  0.000000e+00
    outer loop
      vertex   1.300000e+01  5.001484e+01  3.349323e+01
      vertex   1.300000e+01  3.441065e+01 -2.895738e+01
      vertex   1.300000e+01  3.752576e+01 -2.794055e+01
    endloop
  endfacet
  facet normal  1.000000e+00  0.000000e+00  0.000000e+00
    outer loop
      vertex   1.300000e+01  5.001484e+01  3.349323e+01
      vertex   1.300000e+01  3.230666e+01 -2.820976e+01
      vertex   1.300000e+01  3.441065e+01 -2.895738e+01
    endloop
  endfacet
  facet normal  1.000000e+00  0.000000e+00  0.000000e+00
    outer loop
      vertex   1.300000e+01  5.001484e+01  3.349323e+01
      vertex   1.300000e+01 -3.278825e+00 -2.566845e+00
      vertex   1.300000e+01  3.230666e+01 -2.820976e+01
    endloop
  endfacet
endsolid vcg
