solid STL generated by MeshLab
  facet normal -1.666261e-04  1.000000e+00 -2.139442e-04
    outer loop
      vertex  -1.499970e+01 -1.070112e+01  2.517952e+01
      vertex   1.249376e+01 -1.070000e+01  8.999994e+00
      vertex  -1.499981e+01 -1.070480e+01  8.000068e+00
    endloop
  endfacet
  facet normal  5.525205e-05  1.000000e+00  1.630879e-04
    outer loop
      vertex  -1.499970e+01 -1.070112e+01  2.517952e+01
      vertex   1.499979e+01 -1.070278e+01  2.517922e+01
      vertex   1.249376e+01 -1.070000e+01  8.999994e+00
    endloop
  endfacet
  facet normal -2.034571e-06 -7.788793e-02  9.969621e-01
    outer loop
      vertex  -1.499970e+01 -1.070112e+01  2.517952e+01
      vertex  -1.499988e+01 -7.699802e+01  2.000005e+01
      vertex   1.499964e+01 -7.699898e+01  2.000004e+01
    endloop
  endfacet
  facet normal  5.394934e-06 -7.788458e-02  9.969624e-01
    outer loop
      vertex  -1.499970e+01 -1.070112e+01  2.517952e+01
      vertex   1.499964e+01 -7.699898e+01  2.000004e+01
      vertex   1.499979e+01 -1.070278e+01  2.517922e+01
    endloop
  endfacet
  facet normal -1.000000e+00 -1.855711e-06 -1.621224e-05
    outer loop
      vertex  -1.499981e+01 -1.070480e+01  8.000068e+00
      vertex  -1.499969e+01 -7.699902e+01  8.000000e+00
      vertex  -1.499988e+01 -7.699802e+01  2.000005e+01
    endloop
  endfacet
  facet normal -1.000000e+00  2.204277e-06  6.216931e-06
    outer loop
      vertex  -1.499981e+01 -1.070480e+01  8.000068e+00
      vertex  -1.499988e+01 -7.699802e+01  2.000005e+01
      vertex  -1.499970e+01 -1.070112e+01  2.517952e+01
    endloop
  endfacet
  facet normal  3.051800e-05 -1.000000e+00 -7.311413e-05
    outer loop
      vertex  -1.499969e+01 -7.699902e+01  8.000000e+00
      vertex   1.499990e+01 -7.699810e+01  8.000000e+00
      vertex   1.499964e+01 -7.699898e+01  2.000004e+01
    endloop
  endfacet
  facet normal -3.178961e-05 -1.000000e+00  8.265089e-05
    outer loop
      vertex  -1.499969e+01 -7.699902e+01  8.000000e+00
      vertex   1.499964e+01 -7.699898e+01  2.000004e+01
      vertex  -1.499988e+01 -7.699802e+01  2.000005e+01
    endloop
  endfacet
  facet normal  1.000000e+00  2.341916e-07  5.646807e-06
    outer loop
      vertex   1.499990e+01 -7.699810e+01  8.000000e+00
      vertex   1.499988e+01 -1.184244e+01  7.999979e+00
      vertex   1.499979e+01 -1.070278e+01  2.517922e+01
    endloop
  endfacet
  facet normal  1.000000e+00 -3.883408e-06  2.153679e-05
    outer loop
      vertex   1.499990e+01 -7.699810e+01  8.000000e+00
      vertex   1.499979e+01 -1.070278e+01  2.517922e+01
      vertex   1.499964e+01 -7.699898e+01  2.000004e+01
    endloop
  endfacet
  facet normal -3.117014e-11  1.021369e-06 -1.000000e+00
    outer loop
      vertex   1.499990e+01 -7.699810e+01  8.000000e+00
      vertex  -1.499969e+01 -7.699902e+01  8.000000e+00
      vertex  -1.499981e+01 -1.070480e+01  8.000068e+00
    endloop
  endfacet
  facet normal -2.984804e-06 -3.293300e-07 -1.000000e+00
    outer loop
      vertex   1.499990e+01 -7.699810e+01  8.000000e+00
      vertex  -1.499981e+01 -1.070480e+01  8.000068e+00
      vertex   1.499988e+01 -1.184244e+01  7.999979e+00
    endloop
  endfacet
  facet normal  3.938212e-01  9.171712e-01 -6.084206e-02
    outer loop
      vertex   1.499988e+01 -1.184244e+01  7.999979e+00
      vertex   1.249376e+01 -1.070000e+01  8.999994e+00
      vertex   1.499979e+01 -1.070278e+01  2.517922e+01
    endloop
  endfacet
  facet normal  2.617587e-02  6.903191e-01 -7.230315e-01
    outer loop
      vertex   1.499988e+01 -1.184244e+01  7.999979e+00
      vertex  -1.499981e+01 -1.070480e+01  8.000068e+00
      vertex   1.249376e+01 -1.070000e+01  8.999994e+00
    endloop
  endfacet
endsolid vcg
